<svg width="134" height="43" viewBox="0 0 134 43" fill="none" xmlns="http://www.w3.org/2000/svg">
<path d="M0 21.7884C0 10.1219 9.45755 0.664368 21.124 0.664368H112.876C124.542 0.664368 134 10.1219 134 21.7884C134 33.4549 124.542 42.9124 112.876 42.9124H21.124C9.45755 42.9124 0 33.4549 0 21.7884Z" fill="black"/>
<path d="M29.5628 24.0145H26.042V21.9865H29.5628C30.1387 21.9865 30.605 21.8926 30.9617 21.7049C31.3248 21.5108 31.5908 21.2479 31.7598 20.9162C31.9288 20.5782 32.0133 20.1933 32.0133 19.7614C32.0133 19.342 31.9288 18.9508 31.7598 18.5878C31.5908 18.2247 31.3248 17.9306 30.9617 17.7052C30.605 17.4799 30.1387 17.3672 29.5628 17.3672H26.887V29H24.305V15.3298H29.5628C30.6269 15.3298 31.5345 15.5207 32.2856 15.9026C33.0429 16.2781 33.6188 16.8008 34.0131 17.4705C34.4137 18.134 34.614 18.8913 34.614 19.7426C34.614 20.6251 34.4137 21.3856 34.0131 22.0241C33.6188 22.6625 33.0429 23.1539 32.2856 23.4981C31.5345 23.8424 30.6269 24.0145 29.5628 24.0145ZM41.9373 26.8406V22.1555C41.9373 21.8113 41.8778 21.514 41.7589 21.2636C41.64 21.0132 41.4585 20.8192 41.2144 20.6815C40.9703 20.5438 40.6604 20.4749 40.2849 20.4749C39.9531 20.4749 39.6621 20.5313 39.4117 20.6439C39.1676 20.7566 38.9798 20.9162 38.8484 21.1228C38.7169 21.3231 38.6512 21.5546 38.6512 21.8175H36.1632C36.1632 21.3982 36.2633 21.0007 36.4636 20.6251C36.6639 20.2433 36.9487 19.9053 37.318 19.6112C37.6935 19.3107 38.1411 19.076 38.6606 18.907C39.1864 18.738 39.7747 18.6535 40.4257 18.6535C41.1956 18.6535 41.881 18.7849 42.4819 19.0478C43.089 19.3045 43.5647 19.6925 43.909 20.212C44.2595 20.7316 44.4347 21.3856 44.4347 22.1743V26.6058C44.4347 27.1128 44.466 27.5479 44.5286 27.9109C44.5975 28.2677 44.6976 28.5775 44.8291 28.8404V29H42.3035C42.1845 28.7434 42.0938 28.4179 42.0312 28.0236C41.9686 27.623 41.9373 27.2286 41.9373 26.8406ZM42.2847 22.8128L42.3035 24.2868H40.7355C40.3475 24.2868 40.0063 24.3275 39.7121 24.4089C39.418 24.484 39.177 24.5966 38.9892 24.7469C38.8014 24.8908 38.6606 25.0661 38.5667 25.2726C38.4728 25.4729 38.4259 25.7014 38.4259 25.958C38.4259 26.2084 38.4822 26.4337 38.5949 26.634C38.7138 26.8343 38.8828 26.9939 39.1019 27.1128C39.3272 27.2255 39.5901 27.2818 39.8905 27.2818C40.3287 27.2818 40.7105 27.1942 41.036 27.019C41.3615 26.8374 41.615 26.6184 41.7965 26.3617C41.978 26.1051 42.075 25.861 42.0875 25.6294L42.8011 26.6997C42.7134 26.9564 42.582 27.2286 42.4067 27.5166C42.2315 27.8045 42.0062 28.0736 41.7307 28.324C41.4553 28.5744 41.1236 28.7809 40.7355 28.9437C40.3475 29.1064 39.8968 29.1878 39.3835 29.1878C38.7263 29.1878 38.1379 29.0563 37.6184 28.7934C37.0989 28.5306 36.6889 28.1707 36.3885 27.7137C36.0881 27.2568 35.9378 26.7373 35.9378 26.1552C35.9378 25.6169 36.038 25.1412 36.2383 24.7281C36.4386 24.315 36.7359 23.9676 37.1302 23.6859C37.5245 23.398 38.0128 23.182 38.5949 23.0381C39.1832 22.8879 39.8561 22.8128 40.6135 22.8128H42.2847ZM49.1479 20.9162V29H46.6693V18.8413H49.0165L49.1479 20.9162ZM52.2369 18.7755L52.1993 21.0852C52.0616 21.0602 51.9051 21.0414 51.7299 21.0289C51.5609 21.0164 51.4013 21.0101 51.251 21.0101C50.8692 21.0101 50.5344 21.0633 50.2464 21.1697C49.9585 21.2698 49.7175 21.4169 49.5235 21.611C49.3357 21.805 49.1918 22.0429 49.0916 22.3245C48.9915 22.5999 48.9351 22.9129 48.9226 23.2634L48.3874 23.1977C48.3874 22.553 48.4532 21.9552 48.5846 21.4044C48.7161 20.8536 48.907 20.3717 49.1573 19.9585C49.4077 19.5454 49.7207 19.2262 50.0962 19.0009C50.478 18.7693 50.9162 18.6535 51.4106 18.6535C51.5484 18.6535 51.6954 18.666 51.8519 18.691C52.0147 18.7098 52.143 18.738 52.2369 18.7755ZM56.0769 20.9162V29H53.5982V18.8413H55.9455L56.0769 20.9162ZM59.1658 18.7755L59.1283 21.0852C58.9906 21.0602 58.8341 21.0414 58.6588 21.0289C58.4898 21.0164 58.3302 21.0101 58.18 21.0101C57.7982 21.0101 57.4633 21.0633 57.1754 21.1697C56.8875 21.2698 56.6465 21.4169 56.4525 21.611C56.2647 21.805 56.1207 22.0429 56.0206 22.3245C55.9204 22.5999 55.8641 22.9129 55.8516 23.2634L55.3164 23.1977C55.3164 22.553 55.3821 21.9552 55.5136 21.4044C55.645 20.8536 55.8359 20.3717 56.0863 19.9585C56.3367 19.5454 56.6496 19.2262 57.0252 19.0009C57.407 18.7693 57.8451 18.6535 58.3396 18.6535C58.4773 18.6535 58.6244 18.666 58.7809 18.691C58.9436 18.7098 59.0719 18.738 59.1658 18.7755ZM59.8231 24.0239V23.8267C59.8231 23.0819 59.9295 22.3965 60.1423 21.7706C60.3551 21.1384 60.6649 20.5907 61.0718 20.1275C61.4786 19.6644 61.9762 19.3045 62.5646 19.0478C63.153 18.7849 63.8227 18.6535 64.5738 18.6535C65.3374 18.6535 66.0134 18.7849 66.6018 19.0478C67.1964 19.3045 67.6972 19.6644 68.104 20.1275C68.5109 20.5907 68.8207 21.1384 69.0335 21.7706C69.2463 22.3965 69.3527 23.0819 69.3527 23.8267V24.0239C69.3527 24.7625 69.2463 25.4479 69.0335 26.0801C68.8207 26.706 68.5109 27.2537 68.104 27.7231C67.6972 28.1863 67.1996 28.5462 66.6112 28.8028C66.0228 29.0595 65.35 29.1878 64.5926 29.1878C63.8415 29.1878 63.1686 29.0595 62.574 28.8028C61.9794 28.5462 61.4786 28.1863 61.0718 27.7231C60.6649 27.2537 60.3551 26.706 60.1423 26.0801C59.9295 25.4479 59.8231 24.7625 59.8231 24.0239ZM62.3017 23.8267V24.0239C62.3017 24.4683 62.3455 24.8846 62.4332 25.2726C62.5208 25.6607 62.6554 26.0018 62.8369 26.296C63.0184 26.5902 63.2531 26.8218 63.541 26.9908C63.8352 27.1535 64.1857 27.2349 64.5926 27.2349C64.9932 27.2349 65.3374 27.1535 65.6254 26.9908C65.9133 26.8218 66.148 26.5902 66.3295 26.296C66.5173 26.0018 66.655 25.6607 66.7426 25.2726C66.8303 24.8846 66.8741 24.4683 66.8741 24.0239V23.8267C66.8741 23.3886 66.8303 22.9786 66.7426 22.5968C66.655 22.2087 66.5173 21.8676 66.3295 21.5734C66.148 21.273 65.9102 21.0383 65.616 20.8693C65.328 20.694 64.9807 20.6064 64.5738 20.6064C64.1732 20.6064 63.829 20.694 63.541 20.8693C63.2531 21.0383 63.0184 21.273 62.8369 21.5734C62.6554 21.8676 62.5208 22.2087 62.4332 22.5968C62.3455 22.9786 62.3017 23.3886 62.3017 23.8267ZM75.9625 18.8413V20.6251H70.1414V18.8413H75.9625ZM71.6999 16.3438H74.188V26.0707C74.188 26.3711 74.2287 26.6027 74.31 26.7655C74.3914 26.9282 74.5135 27.0377 74.6762 27.0941C74.839 27.1504 75.033 27.1786 75.2583 27.1786C75.4211 27.1786 75.5713 27.1692 75.709 27.1504C75.8467 27.1316 75.9625 27.1128 76.0564 27.0941L76.0658 28.9531C75.8592 29.0219 75.6245 29.0782 75.3616 29.1221C75.105 29.1659 74.8139 29.1878 74.4884 29.1878C73.9314 29.1878 73.4431 29.0939 73.0238 28.9061C72.6044 28.7121 72.2789 28.4022 72.0473 27.9766C71.8157 27.5447 71.6999 26.9751 71.6999 26.2678V16.3438ZM77.7182 27.7888C77.7182 27.4133 77.8465 27.0972 78.1031 26.8406C78.3598 26.5839 78.7072 26.4556 79.1453 26.4556C79.5834 26.4556 79.9308 26.5839 80.1875 26.8406C80.4441 27.0972 80.5724 27.4133 80.5724 27.7888C80.5724 28.1581 80.4441 28.4711 80.1875 28.7277C79.9308 28.9781 79.5834 29.1033 79.1453 29.1033C78.7072 29.1033 78.3598 28.9781 78.1031 28.7277C77.8465 28.4711 77.7182 28.1581 77.7182 27.7888ZM87.2479 27.2349C87.5984 27.2349 87.9114 27.166 88.1868 27.0283C88.4622 26.8906 88.6812 26.6966 88.844 26.4462C89.013 26.1959 89.1037 25.9048 89.1163 25.5731H91.4541C91.4416 26.2616 91.2475 26.8781 90.872 27.4227C90.4964 27.9672 89.9957 28.3991 89.3698 28.7183C88.7501 29.0313 88.0553 29.1878 87.2854 29.1878C86.503 29.1878 85.8208 29.0563 85.2387 28.7934C84.6566 28.5306 84.1715 28.1644 83.7834 27.695C83.4016 27.2255 83.1137 26.681 82.9196 26.0613C82.7318 25.4416 82.638 24.7781 82.638 24.0709V23.7704C82.638 23.0631 82.7318 22.3996 82.9196 21.78C83.1137 21.1603 83.4016 20.6158 83.7834 20.1463C84.1715 19.6769 84.6566 19.3107 85.2387 19.0478C85.8208 18.7849 86.4999 18.6535 87.276 18.6535C88.096 18.6535 88.8158 18.8131 89.4355 19.1323C90.0614 19.4515 90.5496 19.9022 90.9001 20.4843C91.2569 21.0664 91.4416 21.7518 91.4541 22.5405H89.1163C89.1037 22.1774 89.0224 21.852 88.8721 21.564C88.7219 21.2761 88.5091 21.0445 88.2337 20.8693C87.9583 20.694 87.6234 20.6064 87.2291 20.6064C86.8097 20.6064 86.4592 20.694 86.1775 20.8693C85.9021 21.0445 85.6862 21.2855 85.5297 21.5922C85.3795 21.8926 85.2731 22.2306 85.2105 22.6062C85.1542 22.9755 85.126 23.3636 85.126 23.7704V24.0709C85.126 24.484 85.1542 24.8783 85.2105 25.2539C85.2731 25.6294 85.3795 25.9674 85.5297 26.2678C85.6862 26.562 85.9021 26.7968 86.1775 26.972C86.4592 27.1473 86.816 27.2349 87.2479 27.2349ZM92.6652 24.0239V23.8267C92.6652 23.0819 92.7716 22.3965 92.9845 21.7706C93.1973 21.1384 93.5071 20.5907 93.914 20.1275C94.3208 19.6644 94.8184 19.3045 95.4068 19.0478C95.9952 18.7849 96.6649 18.6535 97.416 18.6535C98.1796 18.6535 98.8556 18.7849 99.444 19.0478C100.039 19.3045 100.539 19.6644 100.946 20.1275C101.353 20.5907 101.663 21.1384 101.876 21.7706C102.089 22.3965 102.195 23.0819 102.195 23.8267V24.0239C102.195 24.7625 102.089 25.4479 101.876 26.0801C101.663 26.706 101.353 27.2537 100.946 27.7231C100.539 28.1863 100.042 28.5462 99.4534 28.8028C98.865 29.0595 98.1921 29.1878 97.4348 29.1878C96.6837 29.1878 96.0108 29.0595 95.4162 28.8028C94.8215 28.5462 94.3208 28.1863 93.914 27.7231C93.5071 27.2537 93.1973 26.706 92.9845 26.0801C92.7716 25.4479 92.6652 24.7625 92.6652 24.0239ZM95.1439 23.8267V24.0239C95.1439 24.4683 95.1877 24.8846 95.2753 25.2726C95.363 25.6607 95.4975 26.0018 95.6791 26.296C95.8606 26.5902 96.0953 26.8218 96.3832 26.9908C96.6774 27.1535 97.0279 27.2349 97.4348 27.2349C97.8354 27.2349 98.1796 27.1535 98.4675 26.9908C98.7555 26.8218 98.9902 26.5902 99.1717 26.296C99.3595 26.0018 99.4972 25.6607 99.5848 25.2726C99.6724 24.8846 99.7163 24.4683 99.7163 24.0239V23.8267C99.7163 23.3886 99.6724 22.9786 99.5848 22.5968C99.4972 22.2087 99.3595 21.8676 99.1717 21.5734C98.9902 21.273 98.7523 21.0383 98.4582 20.8693C98.1702 20.694 97.8228 20.6064 97.416 20.6064C97.0154 20.6064 96.6711 20.694 96.3832 20.8693C96.0953 21.0383 95.8606 21.273 95.6791 21.5734C95.4975 21.8676 95.363 22.2087 95.2753 22.5968C95.1877 22.9786 95.1439 23.3886 95.1439 23.8267ZM106.467 20.9256V29H103.988V18.8413H106.326L106.467 20.9256ZM106.101 23.5545H105.34C105.34 22.8472 105.425 22.1962 105.594 21.6016C105.769 21.007 106.026 20.4906 106.364 20.0524C106.702 19.608 107.118 19.2638 107.612 19.0197C108.113 18.7755 108.692 18.6535 109.349 18.6535C109.806 18.6535 110.226 18.7223 110.607 18.86C110.989 18.9915 111.318 19.2012 111.593 19.4891C111.875 19.7708 112.091 20.1401 112.241 20.597C112.391 21.0476 112.466 21.5891 112.466 22.2213V29H109.988V22.4748C109.988 21.9991 109.919 21.6266 109.781 21.3575C109.65 21.0883 109.459 20.9006 109.208 20.7941C108.958 20.6815 108.658 20.6251 108.307 20.6251C107.919 20.6251 107.584 20.7034 107.302 20.8599C107.027 21.0101 106.799 21.2198 106.617 21.4889C106.442 21.7581 106.31 22.0679 106.223 22.4184C106.141 22.7689 106.101 23.1476 106.101 23.5545ZM112.279 23.0944L111.255 23.2822C111.261 22.6438 111.349 22.046 111.518 21.4889C111.687 20.9256 111.934 20.4342 112.26 20.0149C112.591 19.5892 113.001 19.2575 113.49 19.0197C113.984 18.7755 114.554 18.6535 115.198 18.6535C115.699 18.6535 116.15 18.7255 116.55 18.8694C116.957 19.0071 117.305 19.2293 117.593 19.536C117.881 19.8365 118.1 20.2277 118.25 20.7096C118.406 21.1916 118.485 21.78 118.485 22.4748V29H115.987V22.4654C115.987 21.9709 115.918 21.5922 115.781 21.3293C115.649 21.0664 115.458 20.8849 115.208 20.7848C114.957 20.6784 114.663 20.6251 114.325 20.6251C113.981 20.6251 113.681 20.6909 113.424 20.8223C113.174 20.9475 112.961 21.1228 112.786 21.3481C112.617 21.5734 112.488 21.8363 112.401 22.1368C112.319 22.4309 112.279 22.7502 112.279 23.0944Z" fill="white"/>
<circle cx="14" cy="23" r="3" fill="#99D904"/>
</svg>
